<mxfile host="app.diagrams.net" modified="2021-11-09T09:53:52.166Z" agent="5.0 (Macintosh; Intel Mac OS X 10_15_7) AppleWebKit/537.36 (KHTML, like Gecko) Chrome/95.0.4638.69 Safari/537.36" etag="4fCIqPVMmcR4UuT82aJV" version="15.7.0" type="github" pages="2">
  <diagram id="d-C3JL0F3UjVxZEBKTZM" name="wireframe">
    <mxGraphModel dx="2279" dy="2038" grid="0" gridSize="10" guides="1" tooltips="1" connect="1" arrows="0" fold="1" page="0" pageScale="1" pageWidth="827" pageHeight="1169" math="0" shadow="0">
      <root>
        <mxCell id="0" />
        <mxCell id="1" parent="0" />
        <mxCell id="BgvjaM7vU_6djvCeH08X-2" value="Pressed" style="whiteSpace=wrap;html=1;shadow=0;dashed=0;fontSize=10;align=left;fillColor=#4D4D4D;strokeColor=#4D4D4D;fontColor=#FFFFFF;" parent="1" vertex="1">
          <mxGeometry x="330" y="200" width="168.8" height="16.88" as="geometry" />
        </mxCell>
        <mxCell id="BgvjaM7vU_6djvCeH08X-3" value="Normal" style="whiteSpace=wrap;html=1;shadow=0;dashed=0;fontSize=10;align=left;fillColor=#1A1A1A;strokeColor=#1A1A1A;fontColor=#FFFFFF;" parent="1" vertex="1">
          <mxGeometry x="330" y="200" width="168.8" height="16.88" as="geometry" />
        </mxCell>
        <mxCell id="BgvjaM7vU_6djvCeH08X-4" value="Disabled focused" style="whiteSpace=wrap;html=1;shadow=0;dashed=0;fontSize=10;align=left;fillColor=#006699;strokeColor=#33B5E5;fontColor=#B3B3B3;" parent="1" vertex="1">
          <mxGeometry x="330" y="200" width="168.8" height="16.88" as="geometry" />
        </mxCell>
        <mxCell id="BgvjaM7vU_6djvCeH08X-11" value="&lt;font size=&quot;3&quot;&gt;Logo&lt;/font&gt;" style="whiteSpace=wrap;html=1;shadow=0;dashed=0;fontSize=10;align=left;fillColor=#666666;strokeColor=none;fontColor=#FFFFFF;" parent="1" vertex="1">
          <mxGeometry y="-600" width="80" height="40" as="geometry" />
        </mxCell>
        <mxCell id="BgvjaM7vU_6djvCeH08X-12" value="" style="whiteSpace=wrap;html=1;shadow=0;dashed=0;fontSize=10;align=left;border:1px solid black;fillColor=#666666;strokeColor=none;fontColor=default;labelBackgroundColor=none;" parent="1" vertex="1">
          <mxGeometry x="80" y="-600" width="257.6" height="40" as="geometry" />
        </mxCell>
        <mxCell id="BgvjaM7vU_6djvCeH08X-13" value="&lt;font size=&quot;3&quot;&gt;Search&lt;/font&gt;" style="whiteSpace=wrap;html=1;shadow=0;dashed=0;fontSize=10;align=left;fillColor=#E8E8E8;strokeColor=#f6f6f6;fontColor=#4D4D4D;rounded=1;" parent="1" vertex="1">
          <mxGeometry x="93.8" y="-594.22" width="230" height="28.44" as="geometry" />
        </mxCell>
        <mxCell id="BgvjaM7vU_6djvCeH08X-111" value="" style="edgeStyle=orthogonalEdgeStyle;rounded=0;orthogonalLoop=1;jettySize=auto;html=1;labelBackgroundColor=default;fontSize=12;fontColor=default;strokeColor=default;" parent="1" source="BgvjaM7vU_6djvCeH08X-14" target="BgvjaM7vU_6djvCeH08X-85" edge="1">
          <mxGeometry relative="1" as="geometry" />
        </mxCell>
        <mxCell id="BgvjaM7vU_6djvCeH08X-14" value="" style="image;image=img/lib/atlassian/Jira_Software_Logo.svg;labelBackgroundColor=none;fontSize=12;fontColor=default;strokeColor=default;fillColor=#666666;gradientColor=none;" parent="1" vertex="1">
          <mxGeometry x="40" y="-600" width="30" height="40" as="geometry" />
        </mxCell>
        <mxCell id="BgvjaM7vU_6djvCeH08X-16" value="" style="whiteSpace=wrap;html=1;shadow=0;dashed=0;fontSize=10;align=left;border:1px solid black;fillColor=#666666;strokeColor=none;fontColor=default;labelBackgroundColor=none;" parent="1" vertex="1">
          <mxGeometry x="330" y="-600" width="265.2" height="40" as="geometry" />
        </mxCell>
        <mxCell id="BgvjaM7vU_6djvCeH08X-17" value="" style="whiteSpace=wrap;html=1;shadow=0;dashed=0;fontSize=10;align=left;border:1px solid black;fillColor=#666666;strokeColor=none;fontColor=default;labelBackgroundColor=none;" parent="1" vertex="1">
          <mxGeometry x="590" y="-600" width="240" height="40" as="geometry" />
        </mxCell>
        <mxCell id="BgvjaM7vU_6djvCeH08X-18" value="&amp;nbsp;Workshops" style="rounded=0;fillColor=#F1F2F4;strokeColor=none;html=1;fontColor=#596780;align=left;fontSize=12;spacingLeft=10;sketch=0;labelBackgroundColor=none;" parent="1" vertex="1">
          <mxGeometry y="-520" width="160" height="30" as="geometry" />
        </mxCell>
        <mxCell id="BgvjaM7vU_6djvCeH08X-35" value="" style="shape=triangle;direction=south;fillColor=#596780;strokeColor=none;html=1;sketch=0;rounded=1;labelBackgroundColor=none;fontSize=12;fontColor=default;arcSize=50;" parent="BgvjaM7vU_6djvCeH08X-18" vertex="1">
          <mxGeometry y="12" width="12" height="6" as="geometry" />
        </mxCell>
        <mxCell id="BgvjaM7vU_6djvCeH08X-20" value="&amp;nbsp;&amp;nbsp;&amp;nbsp;&amp;nbsp;&amp;nbsp;&amp;nbsp; React-Workshops" style="rounded=0;fillColor=#F1F2F4;strokeColor=none;html=1;fontColor=#596780;align=left;fontSize=12;spacingLeft=10;sketch=0;labelBackgroundColor=none;" parent="1" vertex="1">
          <mxGeometry y="-490" width="160" height="30" as="geometry" />
        </mxCell>
        <mxCell id="BgvjaM7vU_6djvCeH08X-29" value="&amp;nbsp;&amp;nbsp;&amp;nbsp;&amp;nbsp;&amp;nbsp;&amp;nbsp;&amp;nbsp; ES6-workshop" style="rounded=0;fillColor=#F1F2F4;strokeColor=none;html=1;fontColor=#596780;align=left;fontSize=12;spacingLeft=10;sketch=0;labelBackgroundColor=none;" parent="1" vertex="1">
          <mxGeometry y="-430" width="160" height="30" as="geometry" />
        </mxCell>
        <mxCell id="BgvjaM7vU_6djvCeH08X-31" value="&amp;nbsp;&amp;nbsp;&amp;nbsp;&amp;nbsp;&amp;nbsp;&amp;nbsp; Php-Basics-Workshop" style="rounded=0;fillColor=#F1F2F4;strokeColor=none;html=1;fontColor=#596780;align=left;fontSize=12;spacingLeft=10;sketch=0;labelBackgroundColor=none;" parent="1" vertex="1">
          <mxGeometry y="-460" width="160" height="30" as="geometry" />
        </mxCell>
        <mxCell id="BgvjaM7vU_6djvCeH08X-55" value="" style="shape=image;html=1;verticalAlign=top;verticalLabelPosition=bottom;labelBackgroundColor=#ffffff;imageAspect=0;aspect=fixed;image=https://cdn3.iconfinder.com/data/icons/google-material-design-icons/48/ic_play_arrow_48px-128.png;rounded=1;fontSize=12;fontColor=#FFCCFF;strokeColor=default;fillColor=#666666;gradientColor=none;imageBackground=none;imageBorder=none;opacity=60;" parent="1" vertex="1">
          <mxGeometry x="20" y="-482.5" width="15" height="15" as="geometry" />
        </mxCell>
        <mxCell id="BgvjaM7vU_6djvCeH08X-77" value="" style="shape=image;html=1;verticalAlign=top;verticalLabelPosition=bottom;labelBackgroundColor=#ffffff;imageAspect=0;aspect=fixed;image=https://cdn3.iconfinder.com/data/icons/google-material-design-icons/48/ic_play_arrow_48px-128.png;rounded=1;fontSize=12;fontColor=#FFCCFF;strokeColor=default;fillColor=#666666;gradientColor=none;imageBackground=none;imageBorder=none;opacity=60;" parent="1" vertex="1">
          <mxGeometry x="18.5" y="-453.25" width="16.5" height="16.5" as="geometry" />
        </mxCell>
        <mxCell id="BgvjaM7vU_6djvCeH08X-81" value="" style="shape=image;html=1;verticalAlign=top;verticalLabelPosition=bottom;labelBackgroundColor=#ffffff;imageAspect=0;aspect=fixed;image=https://cdn3.iconfinder.com/data/icons/google-material-design-icons/48/ic_play_arrow_48px-128.png;rounded=1;fontSize=12;fontColor=#FFCCFF;strokeColor=default;fillColor=#666666;gradientColor=none;imageBackground=none;imageBorder=none;opacity=60;" parent="1" vertex="1">
          <mxGeometry x="19.25" y="-423.25" width="16.5" height="16.5" as="geometry" />
        </mxCell>
        <mxCell id="BgvjaM7vU_6djvCeH08X-85" value="" style="rounded=0;fillColor=#F1F2F4;strokeColor=none;html=1;fontColor=#596780;align=left;fontSize=12;spacingLeft=10;sketch=0;labelBackgroundColor=none;shadow=0;" parent="1" vertex="1">
          <mxGeometry y="-560" width="160" height="40" as="geometry" />
        </mxCell>
        <mxCell id="BgvjaM7vU_6djvCeH08X-87" value="&amp;nbsp;Delivered Projects" style="rounded=0;fillColor=#F1F2F4;strokeColor=none;html=1;fontColor=#596780;align=left;fontSize=12;spacingLeft=10;sketch=0;labelBackgroundColor=none;" parent="1" vertex="1">
          <mxGeometry y="-400" width="160" height="30" as="geometry" />
        </mxCell>
        <mxCell id="BgvjaM7vU_6djvCeH08X-88" value="" style="shape=triangle;direction=south;fillColor=#596780;strokeColor=none;html=1;sketch=0;rounded=1;labelBackgroundColor=none;fontSize=12;fontColor=default;arcSize=50;" parent="BgvjaM7vU_6djvCeH08X-87" vertex="1">
          <mxGeometry y="12" width="12" height="6" as="geometry" />
        </mxCell>
        <mxCell id="BgvjaM7vU_6djvCeH08X-89" value="&amp;nbsp;&amp;nbsp;&amp;nbsp;&amp;nbsp;&amp;nbsp;&amp;nbsp; Project-1" style="rounded=0;fillColor=#F1F2F4;strokeColor=none;html=1;fontColor=#596780;align=left;fontSize=12;spacingLeft=10;sketch=0;labelBackgroundColor=none;" parent="1" vertex="1">
          <mxGeometry y="-370" width="160" height="30" as="geometry" />
        </mxCell>
        <mxCell id="BgvjaM7vU_6djvCeH08X-90" value="&amp;nbsp;&amp;nbsp;&amp;nbsp;&amp;nbsp;&amp;nbsp;&amp;nbsp; Project-2" style="rounded=0;fillColor=#F1F2F4;strokeColor=none;html=1;fontColor=#596780;align=left;fontSize=12;spacingLeft=10;sketch=0;labelBackgroundColor=none;" parent="1" vertex="1">
          <mxGeometry y="-340" width="160" height="30" as="geometry" />
        </mxCell>
        <mxCell id="BgvjaM7vU_6djvCeH08X-91" value="&amp;nbsp;&amp;nbsp;&amp;nbsp;&amp;nbsp;&amp;nbsp;&amp;nbsp; Project-3" style="rounded=0;fillColor=#F1F2F4;strokeColor=none;html=1;fontColor=#596780;align=left;fontSize=12;spacingLeft=10;sketch=0;labelBackgroundColor=none;" parent="1" vertex="1">
          <mxGeometry y="-310" width="160" height="30" as="geometry" />
        </mxCell>
        <mxCell id="BgvjaM7vU_6djvCeH08X-92" value="&amp;nbsp;&amp;nbsp;&amp;nbsp;&amp;nbsp;&amp;nbsp;&amp;nbsp; Project-4" style="rounded=0;fillColor=#F1F2F4;strokeColor=none;html=1;fontColor=#596780;align=left;fontSize=12;spacingLeft=10;sketch=0;labelBackgroundColor=none;" parent="1" vertex="1">
          <mxGeometry y="-280" width="160" height="30" as="geometry" />
        </mxCell>
        <mxCell id="BgvjaM7vU_6djvCeH08X-93" value="&amp;nbsp;&amp;nbsp; Images" style="rounded=0;fillColor=#F1F2F4;strokeColor=none;html=1;fontColor=#596780;align=left;fontSize=12;spacingLeft=10;sketch=0;labelBackgroundColor=none;" parent="1" vertex="1">
          <mxGeometry y="-250" width="160" height="30" as="geometry" />
        </mxCell>
        <mxCell id="BgvjaM7vU_6djvCeH08X-96" value="&amp;nbsp; Music" style="rounded=0;fillColor=#F1F2F4;strokeColor=none;html=1;fontColor=#596780;align=left;fontSize=12;spacingLeft=10;sketch=0;labelBackgroundColor=none;" parent="1" vertex="1">
          <mxGeometry y="-220" width="160" height="30" as="geometry" />
        </mxCell>
        <mxCell id="BgvjaM7vU_6djvCeH08X-102" value="&lt;b&gt;Upload&lt;/b&gt;" style="rounded=1;fillColor=#0057D8;align=center;strokeColor=none;html=1;fontColor=#ffffff;fontSize=12;sketch=0;labelBackgroundColor=none;opacity=60;" parent="1" vertex="1">
          <mxGeometry x="37" y="-550" width="73" height="30" as="geometry" />
        </mxCell>
        <mxCell id="BgvjaM7vU_6djvCeH08X-106" value="" style="shape=image;html=1;verticalAlign=top;verticalLabelPosition=bottom;labelBackgroundColor=#ffffff;imageAspect=0;aspect=fixed;image=https://cdn0.iconfinder.com/data/icons/mobile-basic-vol-1/32/Images-128.png;rounded=1;fontSize=12;fontColor=default;strokeColor=default;fillColor=#666666;gradientColor=none;opacity=60;" parent="1" vertex="1">
          <mxGeometry y="-245" width="20" height="20" as="geometry" />
        </mxCell>
        <mxCell id="BgvjaM7vU_6djvCeH08X-107" value="" style="shape=image;html=1;verticalAlign=top;verticalLabelPosition=bottom;labelBackgroundColor=#ffffff;imageAspect=0;aspect=fixed;image=https://cdn4.iconfinder.com/data/icons/ionicons/512/icon-music-note-128.png;rounded=1;fontSize=12;fontColor=default;strokeColor=default;fillColor=#666666;gradientColor=none;opacity=60;" parent="1" vertex="1">
          <mxGeometry y="-214" width="18" height="18" as="geometry" />
        </mxCell>
        <mxCell id="BgvjaM7vU_6djvCeH08X-109" value="&amp;nbsp;Trash" style="rounded=0;fillColor=#F1F2F4;strokeColor=none;html=1;fontColor=#596780;align=left;fontSize=12;spacingLeft=10;sketch=0;labelBackgroundColor=none;" parent="1" vertex="1">
          <mxGeometry y="-190" width="160" height="30" as="geometry" />
        </mxCell>
        <mxCell id="BgvjaM7vU_6djvCeH08X-110" value="" style="shape=image;html=1;verticalAlign=top;verticalLabelPosition=bottom;labelBackgroundColor=#ffffff;imageAspect=0;aspect=fixed;image=https://cdn0.iconfinder.com/data/icons/zondicons/20/trash-128.png;rounded=1;fontSize=12;fontColor=default;strokeColor=default;fillColor=#666666;gradientColor=none;opacity=60;" parent="1" vertex="1">
          <mxGeometry y="-180" width="14" height="14" as="geometry" />
        </mxCell>
        <mxCell id="U9Uw-KmXqPIqswKzSY8E-1" value="" style="shape=image;html=1;verticalAlign=top;verticalLabelPosition=bottom;labelBackgroundColor=#ffffff;imageAspect=0;aspect=fixed;image=https://cdn3.iconfinder.com/data/icons/google-material-design-icons/48/ic_play_arrow_48px-128.png;rounded=1;fontSize=12;fontColor=#FFCCFF;strokeColor=default;fillColor=#666666;gradientColor=none;imageBackground=none;imageBorder=none;opacity=60;" parent="1" vertex="1">
          <mxGeometry x="19.25" y="-362.5" width="15" height="15" as="geometry" />
        </mxCell>
        <mxCell id="U9Uw-KmXqPIqswKzSY8E-2" value="" style="shape=image;html=1;verticalAlign=top;verticalLabelPosition=bottom;labelBackgroundColor=#ffffff;imageAspect=0;aspect=fixed;image=https://cdn3.iconfinder.com/data/icons/google-material-design-icons/48/ic_play_arrow_48px-128.png;rounded=1;fontSize=12;fontColor=#FFCCFF;strokeColor=default;fillColor=#666666;gradientColor=none;imageBackground=none;imageBorder=none;opacity=60;" parent="1" vertex="1">
          <mxGeometry x="19.25" y="-332.5" width="15" height="15" as="geometry" />
        </mxCell>
        <mxCell id="U9Uw-KmXqPIqswKzSY8E-4" value="" style="shape=image;html=1;verticalAlign=top;verticalLabelPosition=bottom;labelBackgroundColor=#ffffff;imageAspect=0;aspect=fixed;image=https://cdn3.iconfinder.com/data/icons/google-material-design-icons/48/ic_play_arrow_48px-128.png;rounded=1;fontSize=12;fontColor=#FFCCFF;strokeColor=default;fillColor=#666666;gradientColor=none;imageBackground=none;imageBorder=none;opacity=60;" parent="1" vertex="1">
          <mxGeometry x="20.75" y="-272.5" width="15" height="15" as="geometry" />
        </mxCell>
        <mxCell id="U9Uw-KmXqPIqswKzSY8E-5" value="" style="shape=image;html=1;verticalAlign=top;verticalLabelPosition=bottom;labelBackgroundColor=#ffffff;imageAspect=0;aspect=fixed;image=https://cdn3.iconfinder.com/data/icons/google-material-design-icons/48/ic_play_arrow_48px-128.png;rounded=1;fontSize=12;fontColor=#FFCCFF;strokeColor=default;fillColor=#666666;gradientColor=none;imageBackground=none;imageBorder=none;opacity=60;" parent="1" vertex="1">
          <mxGeometry x="20" y="-302.5" width="15" height="15" as="geometry" />
        </mxCell>
        <mxCell id="U9Uw-KmXqPIqswKzSY8E-173" value="&lt;div align=&quot;left&quot;&gt;&lt;b&gt;Name&lt;/b&gt;&lt;/div&gt;" style="whiteSpace=wrap;html=1;shadow=0;dashed=0;fontSize=10;align=left;fillColor=#4D4D4D;strokeColor=#4D4D4D;fontColor=#FFFFFF;rounded=0;labelBackgroundColor=none;opacity=60;" parent="1" vertex="1">
          <mxGeometry x="160" y="-560" width="210" height="31" as="geometry" />
        </mxCell>
        <mxCell id="U9Uw-KmXqPIqswKzSY8E-175" value="&lt;div align=&quot;center&quot;&gt;&lt;b&gt;Size&lt;/b&gt;&lt;/div&gt;" style="whiteSpace=wrap;html=1;shadow=0;dashed=0;fontSize=10;align=center;fillColor=#4D4D4D;strokeColor=#4D4D4D;fontColor=#FFFFFF;rounded=0;labelBackgroundColor=none;opacity=60;" parent="1" vertex="1">
          <mxGeometry x="370" y="-560" width="128.8" height="31" as="geometry" />
        </mxCell>
        <mxCell id="U9Uw-KmXqPIqswKzSY8E-176" value="&lt;div align=&quot;center&quot;&gt;&lt;b&gt;Created&lt;/b&gt;&lt;/div&gt;" style="whiteSpace=wrap;html=1;shadow=0;dashed=0;fontSize=10;align=center;fillColor=#4D4D4D;strokeColor=#4D4D4D;fontColor=#FFFFFF;rounded=0;labelBackgroundColor=none;opacity=60;" parent="1" vertex="1">
          <mxGeometry x="638.8" y="-560" width="140" height="31" as="geometry" />
        </mxCell>
        <mxCell id="U9Uw-KmXqPIqswKzSY8E-177" value="&lt;div align=&quot;center&quot;&gt;&lt;b&gt;Modified&lt;/b&gt;&lt;/div&gt;" style="whiteSpace=wrap;html=1;shadow=0;dashed=0;fontSize=10;align=center;fillColor=#4D4D4D;strokeColor=#4D4D4D;fontColor=#FFFFFF;rounded=0;labelBackgroundColor=none;opacity=60;" parent="1" vertex="1">
          <mxGeometry x="498.8" y="-560" width="140" height="31" as="geometry" />
        </mxCell>
        <mxCell id="U9Uw-KmXqPIqswKzSY8E-178" value="" style="whiteSpace=wrap;html=1;shadow=0;dashed=0;fontSize=10;align=left;border:1px solid black;fillColor=#666666;strokeColor=none;fontColor=default;labelBackgroundColor=none;" parent="1" vertex="1">
          <mxGeometry x="827" y="-600" width="220" height="40" as="geometry" />
        </mxCell>
        <mxCell id="U9Uw-KmXqPIqswKzSY8E-179" value="" style="sketch=0;pointerEvents=1;shadow=0;dashed=0;html=1;strokeColor=none;fillColor=#505050;labelPosition=center;verticalLabelPosition=bottom;verticalAlign=top;outlineConnect=0;align=center;shape=mxgraph.office.concepts.search;rounded=0;labelBackgroundColor=none;fontSize=12;fontColor=default;opacity=60;" parent="1" vertex="1">
          <mxGeometry x="290" y="-585.75" width="10" height="11.5" as="geometry" />
        </mxCell>
        <mxCell id="U9Uw-KmXqPIqswKzSY8E-182" value="" style="shape=table;html=1;whiteSpace=wrap;startSize=0;container=1;collapsible=0;childLayout=tableLayout;rounded=0;shadow=0;labelBackgroundColor=none;fontSize=12;fontColor=default;strokeColor=none;strokeWidth=0;fillColor=none;gradientColor=none;align=center;opacity=60;" parent="1" vertex="1">
          <mxGeometry x="160" y="-526.75" width="481" height="200" as="geometry" />
        </mxCell>
        <mxCell id="U9Uw-KmXqPIqswKzSY8E-183" value="" style="shape=partialRectangle;html=1;whiteSpace=wrap;collapsible=0;dropTarget=0;pointerEvents=0;fillColor=none;top=0;left=0;bottom=0;right=0;points=[[0,0.5],[1,0.5]];portConstraint=eastwest;rounded=0;shadow=0;labelBackgroundColor=none;fontSize=12;fontColor=default;strokeColor=default;strokeWidth=0;align=center;opacity=60;" parent="U9Uw-KmXqPIqswKzSY8E-182" vertex="1">
          <mxGeometry width="481" height="40" as="geometry" />
        </mxCell>
        <mxCell id="U9Uw-KmXqPIqswKzSY8E-184" value="&lt;div align=&quot;left&quot;&gt;Friends Image &lt;font color=&quot;#808080&quot;&gt;jpg&lt;/font&gt;&lt;br&gt;&lt;/div&gt;" style="shape=partialRectangle;html=1;whiteSpace=wrap;connectable=0;fillColor=none;top=0;left=0;bottom=0;right=0;overflow=hidden;pointerEvents=1;rounded=0;shadow=0;labelBackgroundColor=none;fontSize=12;fontColor=default;strokeColor=default;strokeWidth=0;align=left;opacity=60;" parent="U9Uw-KmXqPIqswKzSY8E-183" vertex="1">
          <mxGeometry width="210" height="40" as="geometry">
            <mxRectangle width="210" height="40" as="alternateBounds" />
          </mxGeometry>
        </mxCell>
        <mxCell id="U9Uw-KmXqPIqswKzSY8E-185" value="99,6 KB" style="shape=partialRectangle;html=1;whiteSpace=wrap;connectable=0;fillColor=none;top=0;left=0;bottom=0;right=0;overflow=hidden;pointerEvents=1;rounded=0;shadow=0;labelBackgroundColor=none;fontSize=12;fontColor=default;strokeColor=default;strokeWidth=0;align=center;opacity=60;" parent="U9Uw-KmXqPIqswKzSY8E-183" vertex="1">
          <mxGeometry x="210" width="131" height="40" as="geometry">
            <mxRectangle width="131" height="40" as="alternateBounds" />
          </mxGeometry>
        </mxCell>
        <mxCell id="U9Uw-KmXqPIqswKzSY8E-186" value="02-11-2021" style="shape=partialRectangle;html=1;whiteSpace=wrap;connectable=0;fillColor=none;top=0;left=0;bottom=0;right=0;overflow=hidden;pointerEvents=1;rounded=0;shadow=0;labelBackgroundColor=none;fontSize=12;fontColor=default;strokeColor=default;strokeWidth=0;align=center;opacity=60;" parent="U9Uw-KmXqPIqswKzSY8E-183" vertex="1">
          <mxGeometry x="341" width="140" height="40" as="geometry">
            <mxRectangle width="140" height="40" as="alternateBounds" />
          </mxGeometry>
        </mxCell>
        <mxCell id="U9Uw-KmXqPIqswKzSY8E-187" value="" style="shape=partialRectangle;html=1;whiteSpace=wrap;collapsible=0;dropTarget=0;pointerEvents=0;fillColor=none;top=0;left=0;bottom=0;right=0;points=[[0,0.5],[1,0.5]];portConstraint=eastwest;rounded=0;shadow=0;labelBackgroundColor=none;fontSize=12;fontColor=default;strokeColor=default;strokeWidth=0;align=center;opacity=60;" parent="U9Uw-KmXqPIqswKzSY8E-182" vertex="1">
          <mxGeometry y="40" width="481" height="40" as="geometry" />
        </mxCell>
        <mxCell id="U9Uw-KmXqPIqswKzSY8E-188" value="React-Router-Workshop " style="shape=partialRectangle;html=1;whiteSpace=wrap;connectable=0;fillColor=none;top=0;left=0;bottom=0;right=0;overflow=hidden;pointerEvents=1;rounded=0;shadow=0;labelBackgroundColor=none;fontSize=12;fontColor=default;strokeColor=default;strokeWidth=0;align=left;opacity=60;" parent="U9Uw-KmXqPIqswKzSY8E-187" vertex="1">
          <mxGeometry width="210" height="40" as="geometry">
            <mxRectangle width="210" height="40" as="alternateBounds" />
          </mxGeometry>
        </mxCell>
        <mxCell id="U9Uw-KmXqPIqswKzSY8E-189" value="&lt;div class=&quot;a-q-Jc-Lb&quot;&gt;350,5&amp;nbsp;MB&lt;/div&gt;" style="shape=partialRectangle;html=1;whiteSpace=wrap;connectable=0;fillColor=none;top=0;left=0;bottom=0;right=0;overflow=hidden;pointerEvents=1;rounded=0;shadow=0;labelBackgroundColor=none;fontSize=12;fontColor=default;strokeColor=default;strokeWidth=0;align=center;opacity=60;" parent="U9Uw-KmXqPIqswKzSY8E-187" vertex="1">
          <mxGeometry x="210" width="131" height="40" as="geometry">
            <mxRectangle width="131" height="40" as="alternateBounds" />
          </mxGeometry>
        </mxCell>
        <mxCell id="U9Uw-KmXqPIqswKzSY8E-190" value="07-10-2021" style="shape=partialRectangle;html=1;whiteSpace=wrap;connectable=0;fillColor=none;top=0;left=0;bottom=0;right=0;overflow=hidden;pointerEvents=1;rounded=0;shadow=0;labelBackgroundColor=none;fontSize=12;fontColor=default;strokeColor=default;strokeWidth=3;align=center;opacity=70;perimeterSpacing=2;" parent="U9Uw-KmXqPIqswKzSY8E-187" vertex="1">
          <mxGeometry x="341" width="140" height="40" as="geometry">
            <mxRectangle width="140" height="40" as="alternateBounds" />
          </mxGeometry>
        </mxCell>
        <mxCell id="U9Uw-KmXqPIqswKzSY8E-191" value="" style="shape=partialRectangle;html=1;whiteSpace=wrap;collapsible=0;dropTarget=0;pointerEvents=0;fillColor=none;top=0;left=0;bottom=0;right=0;points=[[0,0.5],[1,0.5]];portConstraint=eastwest;rounded=0;shadow=0;labelBackgroundColor=none;fontSize=12;fontColor=default;strokeColor=default;strokeWidth=0;align=center;opacity=60;" parent="U9Uw-KmXqPIqswKzSY8E-182" vertex="1">
          <mxGeometry y="80" width="481" height="40" as="geometry" />
        </mxCell>
        <mxCell id="U9Uw-KmXqPIqswKzSY8E-192" value="Rick-and-Morty-help-session" style="shape=partialRectangle;html=1;whiteSpace=wrap;connectable=0;fillColor=none;top=0;left=0;bottom=0;right=0;overflow=hidden;pointerEvents=1;rounded=0;shadow=0;labelBackgroundColor=none;fontSize=12;fontColor=default;strokeColor=default;strokeWidth=0;align=left;opacity=60;" parent="U9Uw-KmXqPIqswKzSY8E-191" vertex="1">
          <mxGeometry width="210" height="40" as="geometry">
            <mxRectangle width="210" height="40" as="alternateBounds" />
          </mxGeometry>
        </mxCell>
        <mxCell id="U9Uw-KmXqPIqswKzSY8E-193" value="290,4 MB" style="shape=partialRectangle;html=1;whiteSpace=wrap;connectable=0;fillColor=none;top=0;left=0;bottom=0;right=0;overflow=hidden;pointerEvents=1;rounded=0;shadow=0;labelBackgroundColor=none;fontSize=12;fontColor=default;strokeColor=default;strokeWidth=0;align=center;opacity=60;" parent="U9Uw-KmXqPIqswKzSY8E-191" vertex="1">
          <mxGeometry x="210" width="131" height="40" as="geometry">
            <mxRectangle width="131" height="40" as="alternateBounds" />
          </mxGeometry>
        </mxCell>
        <mxCell id="U9Uw-KmXqPIqswKzSY8E-194" value="31-09-2021" style="shape=partialRectangle;html=1;whiteSpace=wrap;connectable=0;fillColor=none;top=0;left=0;bottom=0;right=0;overflow=hidden;pointerEvents=1;rounded=0;shadow=0;labelBackgroundColor=none;fontSize=12;fontColor=default;strokeColor=default;strokeWidth=0;align=center;opacity=60;" parent="U9Uw-KmXqPIqswKzSY8E-191" vertex="1">
          <mxGeometry x="341" width="140" height="40" as="geometry">
            <mxRectangle width="140" height="40" as="alternateBounds" />
          </mxGeometry>
        </mxCell>
        <mxCell id="U9Uw-KmXqPIqswKzSY8E-202" value="" style="shape=partialRectangle;html=1;whiteSpace=wrap;collapsible=0;dropTarget=0;pointerEvents=0;fillColor=none;top=0;left=0;bottom=0;right=0;points=[[0,0.5],[1,0.5]];portConstraint=eastwest;rounded=0;shadow=0;labelBackgroundColor=none;fontSize=12;fontColor=default;strokeColor=default;strokeWidth=0;align=center;opacity=60;" parent="U9Uw-KmXqPIqswKzSY8E-182" vertex="1">
          <mxGeometry y="120" width="481" height="40" as="geometry" />
        </mxCell>
        <mxCell id="U9Uw-KmXqPIqswKzSY8E-203" value="Sass-Clone-Instagram " style="shape=partialRectangle;html=1;whiteSpace=wrap;connectable=0;fillColor=none;top=0;left=0;bottom=0;right=0;overflow=hidden;pointerEvents=1;rounded=0;shadow=0;labelBackgroundColor=none;fontSize=12;fontColor=default;strokeColor=default;strokeWidth=0;align=left;opacity=60;" parent="U9Uw-KmXqPIqswKzSY8E-202" vertex="1">
          <mxGeometry width="210" height="40" as="geometry">
            <mxRectangle width="210" height="40" as="alternateBounds" />
          </mxGeometry>
        </mxCell>
        <mxCell id="U9Uw-KmXqPIqswKzSY8E-204" value="260 KB" style="shape=partialRectangle;html=1;whiteSpace=wrap;connectable=0;fillColor=none;top=0;left=0;bottom=0;right=0;overflow=hidden;pointerEvents=1;rounded=0;shadow=0;labelBackgroundColor=none;fontSize=12;fontColor=default;strokeColor=default;strokeWidth=0;align=center;opacity=60;" parent="U9Uw-KmXqPIqswKzSY8E-202" vertex="1">
          <mxGeometry x="210" width="131" height="40" as="geometry">
            <mxRectangle width="131" height="40" as="alternateBounds" />
          </mxGeometry>
        </mxCell>
        <mxCell id="U9Uw-KmXqPIqswKzSY8E-205" value="01-09-2021" style="shape=partialRectangle;html=1;whiteSpace=wrap;connectable=0;fillColor=none;top=0;left=0;bottom=0;right=0;overflow=hidden;pointerEvents=1;rounded=0;shadow=0;labelBackgroundColor=none;fontSize=12;fontColor=default;strokeColor=default;strokeWidth=0;align=center;opacity=60;" parent="U9Uw-KmXqPIqswKzSY8E-202" vertex="1">
          <mxGeometry x="341" width="140" height="40" as="geometry">
            <mxRectangle width="140" height="40" as="alternateBounds" />
          </mxGeometry>
        </mxCell>
        <mxCell id="U9Uw-KmXqPIqswKzSY8E-206" value="" style="shape=partialRectangle;html=1;whiteSpace=wrap;collapsible=0;dropTarget=0;pointerEvents=0;fillColor=none;top=0;left=0;bottom=0;right=0;points=[[0,0.5],[1,0.5]];portConstraint=eastwest;rounded=0;shadow=0;labelBackgroundColor=none;fontSize=12;fontColor=default;strokeColor=default;strokeWidth=0;align=center;opacity=60;" parent="U9Uw-KmXqPIqswKzSY8E-182" vertex="1">
          <mxGeometry y="160" width="481" height="40" as="geometry" />
        </mxCell>
        <mxCell id="U9Uw-KmXqPIqswKzSY8E-207" value="&amp;nbsp;&amp;nbsp; Music " style="shape=partialRectangle;html=1;whiteSpace=wrap;connectable=0;fillColor=#DEDEDE;top=0;left=0;bottom=0;right=0;overflow=hidden;pointerEvents=1;rounded=0;shadow=0;labelBackgroundColor=none;fontSize=12;fontColor=default;strokeColor=default;strokeWidth=0;align=left;opacity=60;" parent="U9Uw-KmXqPIqswKzSY8E-206" vertex="1">
          <mxGeometry width="210" height="40" as="geometry">
            <mxRectangle width="210" height="40" as="alternateBounds" />
          </mxGeometry>
        </mxCell>
        <mxCell id="U9Uw-KmXqPIqswKzSY8E-208" value="--" style="shape=partialRectangle;html=1;whiteSpace=wrap;connectable=0;fillColor=#DEDEDE;top=0;left=0;bottom=0;right=0;overflow=hidden;pointerEvents=1;rounded=0;shadow=0;labelBackgroundColor=none;fontSize=12;fontColor=default;strokeColor=default;strokeWidth=0;align=center;opacity=60;" parent="U9Uw-KmXqPIqswKzSY8E-206" vertex="1">
          <mxGeometry x="210" width="131" height="40" as="geometry">
            <mxRectangle width="131" height="40" as="alternateBounds" />
          </mxGeometry>
        </mxCell>
        <mxCell id="U9Uw-KmXqPIqswKzSY8E-209" value="30-10-2021" style="shape=partialRectangle;html=1;whiteSpace=wrap;connectable=0;fillColor=#DEDEDE;top=0;left=0;bottom=0;right=0;overflow=hidden;pointerEvents=1;rounded=0;shadow=0;labelBackgroundColor=none;fontSize=12;fontColor=default;strokeColor=default;strokeWidth=0;align=center;opacity=60;" parent="U9Uw-KmXqPIqswKzSY8E-206" vertex="1">
          <mxGeometry x="341" width="140" height="40" as="geometry">
            <mxRectangle width="140" height="40" as="alternateBounds" />
          </mxGeometry>
        </mxCell>
        <mxCell id="U9Uw-KmXqPIqswKzSY8E-195" value="" style="html=1;shadow=0;dashed=0;shape=mxgraph.bootstrap.rrect;rSize=5;strokeColor=none;html=1;whiteSpace=wrap;fillColor=#FFFFFF;fontColor=#000000;rounded=0;labelBackgroundColor=none;fontSize=14;align=left;opacity=60;" parent="1" vertex="1">
          <mxGeometry x="638.8" y="-528.75" width="144" height="92" as="geometry" />
        </mxCell>
        <mxCell id="U9Uw-KmXqPIqswKzSY8E-196" value="&lt;div align=&quot;center&quot;&gt;&lt;font style=&quot;font-size: 12px&quot;&gt;02-11-2021&lt;/font&gt;&lt;/div&gt;" style="html=1;shadow=0;dashed=0;shape=mxgraph.bootstrap.topButton;strokeColor=inherit;fillColor=none;rSize=5;perimeter=none;whiteSpace=wrap;resizeWidth=1;align=center;spacing=10;rounded=0;labelBackgroundColor=none;fontSize=14;fontColor=default;opacity=60;" parent="U9Uw-KmXqPIqswKzSY8E-195" vertex="1">
          <mxGeometry width="144" height="41" relative="1" as="geometry" />
        </mxCell>
        <mxCell id="U9Uw-KmXqPIqswKzSY8E-197" value="&lt;font style=&quot;font-size: 12px&quot;&gt;02-10-2021&lt;/font&gt;" style="strokeColor=inherit;fillColor=inherit;gradientColor=inherit;fontColor=inherit;html=1;shadow=0;dashed=0;perimeter=none;whiteSpace=wrap;resizeWidth=1;align=center;spacing=10;rounded=0;labelBackgroundColor=none;fontSize=14;opacity=60;" parent="U9Uw-KmXqPIqswKzSY8E-195" vertex="1">
          <mxGeometry width="144" height="39" relative="1" as="geometry">
            <mxPoint y="39" as="offset" />
          </mxGeometry>
        </mxCell>
        <mxCell id="U9Uw-KmXqPIqswKzSY8E-201" value="&lt;font style=&quot;font-size: 12px&quot;&gt;31-09-2021&lt;/font&gt;" style="strokeColor=inherit;fillColor=inherit;gradientColor=inherit;fontColor=inherit;html=1;shadow=0;dashed=0;perimeter=none;whiteSpace=wrap;resizeWidth=1;align=center;spacing=10;rounded=0;labelBackgroundColor=none;fontSize=14;opacity=60;" parent="U9Uw-KmXqPIqswKzSY8E-195" vertex="1">
          <mxGeometry width="144" height="39" relative="1" as="geometry">
            <mxPoint y="78" as="offset" />
          </mxGeometry>
        </mxCell>
        <mxCell id="U9Uw-KmXqPIqswKzSY8E-215" value="&lt;font style=&quot;font-size: 12px&quot;&gt;30-08-2021&lt;/font&gt;" style="strokeColor=inherit;fillColor=inherit;gradientColor=inherit;fontColor=inherit;html=1;shadow=0;dashed=0;perimeter=none;whiteSpace=wrap;resizeWidth=1;align=center;spacing=10;rounded=0;labelBackgroundColor=none;fontSize=14;opacity=60;" parent="U9Uw-KmXqPIqswKzSY8E-195" vertex="1">
          <mxGeometry width="144" height="39" relative="1" as="geometry">
            <mxPoint y="121" as="offset" />
          </mxGeometry>
        </mxCell>
        <mxCell id="U9Uw-KmXqPIqswKzSY8E-229" value="&lt;font style=&quot;font-size: 12px&quot;&gt;17-07-2021&lt;/font&gt;" style="strokeColor=none;fillColor=#DEDEDE;fontColor=#333333;html=1;shadow=0;dashed=0;perimeter=none;whiteSpace=wrap;resizeWidth=1;align=center;spacing=10;rounded=0;labelBackgroundColor=none;fontSize=14;opacity=60;" parent="U9Uw-KmXqPIqswKzSY8E-195" vertex="1">
          <mxGeometry width="138" height="40" relative="1" as="geometry">
            <mxPoint x="2" y="162" as="offset" />
          </mxGeometry>
        </mxCell>
        <mxCell id="U9Uw-KmXqPIqswKzSY8E-200" value="" style="dashed=0;aspect=fixed;verticalLabelPosition=bottom;verticalAlign=top;align=center;shape=mxgraph.gmdl.video;strokeColor=none;fillColor=#737373;shadow=0;sketch=0;rounded=0;labelBackgroundColor=none;fontSize=12;fontColor=default;opacity=60;" parent="1" vertex="1">
          <mxGeometry x="296" y="-470.66999999999996" width="16" height="10.67" as="geometry" />
        </mxCell>
        <mxCell id="U9Uw-KmXqPIqswKzSY8E-210" value="" style="rounded=0;whiteSpace=wrap;html=1;shadow=0;labelBackgroundColor=none;fontSize=12;fontColor=default;strokeColor=default;strokeWidth=3;fillColor=none;gradientColor=none;align=center;opacity=70;" parent="1" vertex="1">
          <mxGeometry x="778.8" y="-558" width="267.2" height="503" as="geometry" />
        </mxCell>
        <mxCell id="U9Uw-KmXqPIqswKzSY8E-211" value="&lt;font style=&quot;font-size: 18px&quot;&gt;Optional Area&lt;/font&gt;" style="text;html=1;strokeColor=none;fillColor=none;align=center;verticalAlign=middle;whiteSpace=wrap;rounded=0;shadow=0;labelBackgroundColor=none;fontSize=12;fontColor=default;opacity=70;" parent="1" vertex="1">
          <mxGeometry x="833" y="-392.5" width="170" height="65.5" as="geometry" />
        </mxCell>
        <mxCell id="U9Uw-KmXqPIqswKzSY8E-212" value="" style="dashed=0;aspect=fixed;verticalLabelPosition=bottom;verticalAlign=top;align=center;shape=mxgraph.gmdl.video;strokeColor=none;fillColor=#737373;shadow=0;sketch=0;rounded=0;labelBackgroundColor=none;fontSize=12;fontColor=default;opacity=60;" parent="1" vertex="1">
          <mxGeometry x="314" y="-432.09" width="16" height="10.67" as="geometry" />
        </mxCell>
        <mxCell id="U9Uw-KmXqPIqswKzSY8E-213" value="" style="shape=image;html=1;verticalAlign=top;verticalLabelPosition=bottom;labelBackgroundColor=#ffffff;imageAspect=0;aspect=fixed;image=https://cdn4.iconfinder.com/data/icons/ionicons/512/icon-image-128.png;rounded=0;shadow=0;fontSize=12;fontColor=#828282;strokeColor=default;strokeWidth=3;fillColor=none;gradientColor=none;opacity=70;" parent="1" vertex="1">
          <mxGeometry x="261" y="-513" width="16" height="16" as="geometry" />
        </mxCell>
        <mxCell id="U9Uw-KmXqPIqswKzSY8E-214" value="" style="shape=image;html=1;verticalAlign=top;verticalLabelPosition=bottom;labelBackgroundColor=#ffffff;imageAspect=0;aspect=fixed;image=https://cdn4.iconfinder.com/data/icons/feather/24/file-text-128.png;rounded=0;shadow=0;fontSize=12;fontColor=#828282;strokeColor=default;strokeWidth=3;fillColor=none;gradientColor=none;opacity=70;" parent="1" vertex="1">
          <mxGeometry x="286.5" y="-393.5" width="17" height="17" as="geometry" />
        </mxCell>
        <mxCell id="U9Uw-KmXqPIqswKzSY8E-216" value="" style="shape=image;html=1;verticalAlign=top;verticalLabelPosition=bottom;labelBackgroundColor=#ffffff;imageAspect=0;aspect=fixed;image=https://cdn4.iconfinder.com/data/icons/ionicons/512/icon-music-note-128.png;rounded=1;fontSize=12;fontColor=default;strokeColor=default;fillColor=#666666;gradientColor=none;opacity=60;" parent="1" vertex="1">
          <mxGeometry x="201.3" y="-353" width="12" height="12" as="geometry" />
        </mxCell>
        <mxCell id="U9Uw-KmXqPIqswKzSY8E-219" value="" style="shape=triangle;direction=south;fillColor=#596780;strokeColor=none;html=1;sketch=0;rounded=1;labelBackgroundColor=none;fontSize=12;fontColor=default;arcSize=50;" parent="1" vertex="1">
          <mxGeometry x="217" y="-351" width="12" height="6" as="geometry" />
        </mxCell>
        <mxCell id="7edIzHyQ4iojDQmu1elH-11" value="" style="html=1;shadow=1;dashed=0;shape=mxgraph.bootstrap.rrect;rSize=5;fillColor=#3399FF;strokeColor=#999999;fontColor=default;" parent="1" vertex="1">
          <mxGeometry x="217" y="-340" width="170" height="110" as="geometry" />
        </mxCell>
        <mxCell id="7edIzHyQ4iojDQmu1elH-12" value="  Open" style="fillColor=none;strokeColor=none;align=left;spacing=20;fontSize=14;fontColor=default;" parent="7edIzHyQ4iojDQmu1elH-11" vertex="1">
          <mxGeometry width="170" height="30" relative="1" as="geometry">
            <mxPoint y="10" as="offset" />
          </mxGeometry>
        </mxCell>
        <mxCell id="7edIzHyQ4iojDQmu1elH-13" value="  Rename" style="fillColor=#66B2FF;strokeColor=none;fontColor=default;align=left;spacing=20;fontSize=14;sketch=0;" parent="7edIzHyQ4iojDQmu1elH-11" vertex="1">
          <mxGeometry width="170" height="30" relative="1" as="geometry">
            <mxPoint y="40" as="offset" />
          </mxGeometry>
        </mxCell>
        <mxCell id="7edIzHyQ4iojDQmu1elH-14" value="  Delete" style="fillColor=none;strokeColor=none;align=left;spacing=20;fontSize=14;fontColor=default;" parent="7edIzHyQ4iojDQmu1elH-11" vertex="1">
          <mxGeometry width="170" height="30" relative="1" as="geometry">
            <mxPoint y="70" as="offset" />
          </mxGeometry>
        </mxCell>
        <mxCell id="7edIzHyQ4iojDQmu1elH-16" value="" style="shape=image;html=1;verticalAlign=top;verticalLabelPosition=bottom;labelBackgroundColor=#ffffff;imageAspect=0;aspect=fixed;image=https://cdn0.iconfinder.com/data/icons/google-material-design-3-0/48/ic_open_with_48px-128.png;fontColor=default;fillColor=#66B2FF;" parent="7edIzHyQ4iojDQmu1elH-11" vertex="1">
          <mxGeometry x="4" y="17" width="19" height="19" as="geometry" />
        </mxCell>
        <mxCell id="7edIzHyQ4iojDQmu1elH-17" value="" style="shape=image;html=1;verticalAlign=top;verticalLabelPosition=bottom;labelBackgroundColor=#ffffff;imageAspect=0;aspect=fixed;image=https://cdn4.iconfinder.com/data/icons/basic-ui-2-line/32/pencil-edit-write-draw-stationary-128.png;fontColor=default;fillColor=#66B2FF;" parent="7edIzHyQ4iojDQmu1elH-11" vertex="1">
          <mxGeometry x="6" y="47.5" width="15" height="15" as="geometry" />
        </mxCell>
        <mxCell id="7edIzHyQ4iojDQmu1elH-18" value="" style="shape=image;html=1;verticalAlign=top;verticalLabelPosition=bottom;labelBackgroundColor=#ffffff;imageAspect=0;aspect=fixed;image=https://cdn1.iconfinder.com/data/icons/feather-2/24/trash-2-128.png;fontColor=default;fillColor=#66B2FF;" parent="7edIzHyQ4iojDQmu1elH-11" vertex="1">
          <mxGeometry x="5" y="77" width="16" height="16" as="geometry" />
        </mxCell>
        <mxCell id="IQGO2oIn3tHlFsK7WPGk-4" value="" style="strokeWidth=1;shadow=0;dashed=0;align=center;html=1;shape=mxgraph.mockup.forms.rrect;rSize=0;strokeColor=#999999;fillColor=#ffffff;fontColor=#E4FDE1;" parent="1" vertex="1">
          <mxGeometry x="-5" y="-941" width="205" height="242" as="geometry" />
        </mxCell>
        <mxCell id="IQGO2oIn3tHlFsK7WPGk-5" value="Add file" style="strokeWidth=1;shadow=0;dashed=0;align=center;html=1;shape=mxgraph.mockup.forms.anchor;fontSize=12;fontColor=#666666;align=left;resizeWidth=1;spacingLeft=0;fillColor=#F45B69;" parent="IQGO2oIn3tHlFsK7WPGk-4" vertex="1">
          <mxGeometry width="102.49999999999999" height="20" relative="1" as="geometry">
            <mxPoint x="10" y="10" as="offset" />
          </mxGeometry>
        </mxCell>
        <mxCell id="IQGO2oIn3tHlFsK7WPGk-6" value="" style="shape=line;strokeColor=#ddeeff;strokeWidth=2;html=1;resizeWidth=1;fontColor=#E4FDE1;fillColor=#F45B69;" parent="IQGO2oIn3tHlFsK7WPGk-4" vertex="1">
          <mxGeometry width="184.49999999999997" height="10" relative="1" as="geometry">
            <mxPoint x="10" y="30" as="offset" />
          </mxGeometry>
        </mxCell>
        <mxCell id="IQGO2oIn3tHlFsK7WPGk-7" value="Select file" style="strokeWidth=1;shadow=0;dashed=0;align=center;html=1;shape=mxgraph.mockup.forms.anchor;fontSize=12;fontColor=#666666;align=left;resizeWidth=1;spacingLeft=0;fillColor=#F45B69;" parent="IQGO2oIn3tHlFsK7WPGk-4" vertex="1">
          <mxGeometry width="102.49999999999999" height="20" relative="1" as="geometry">
            <mxPoint x="10" y="40" as="offset" />
          </mxGeometry>
        </mxCell>
        <mxCell id="IQGO2oIn3tHlFsK7WPGk-8" value="file name" style="strokeWidth=1;shadow=0;dashed=0;align=center;html=1;shape=mxgraph.mockup.forms.rrect;rSize=0;strokeColor=#999999;fontColor=#666666;align=left;spacingLeft=5;resizeWidth=1;fillColor=#F45B69;" parent="IQGO2oIn3tHlFsK7WPGk-4" vertex="1">
          <mxGeometry width="153.75" height="25" relative="1" as="geometry">
            <mxPoint x="10" y="60" as="offset" />
          </mxGeometry>
        </mxCell>
        <mxCell id="IQGO2oIn3tHlFsK7WPGk-9" value="Folder" style="strokeWidth=1;shadow=0;dashed=0;align=center;html=1;shape=mxgraph.mockup.forms.anchor;fontSize=12;fontColor=#666666;align=left;resizeWidth=1;spacingLeft=0;fillColor=#F45B69;" parent="IQGO2oIn3tHlFsK7WPGk-4" vertex="1">
          <mxGeometry width="102.49999999999999" height="20" relative="1" as="geometry">
            <mxPoint x="10" y="95" as="offset" />
          </mxGeometry>
        </mxCell>
        <mxCell id="IQGO2oIn3tHlFsK7WPGk-10" value="path/to/folder" style="strokeWidth=1;shadow=0;dashed=0;align=center;html=1;shape=mxgraph.mockup.forms.rrect;rSize=0;strokeColor=#999999;fontColor=#666666;align=left;spacingLeft=5;resizeWidth=1;fillColor=#F45B69;" parent="IQGO2oIn3tHlFsK7WPGk-4" vertex="1">
          <mxGeometry width="153.75" height="25" relative="1" as="geometry">
            <mxPoint x="10" y="115" as="offset" />
          </mxGeometry>
        </mxCell>
        <mxCell id="IQGO2oIn3tHlFsK7WPGk-14" value="upload" style="strokeWidth=1;shadow=0;dashed=0;align=center;html=1;shape=mxgraph.mockup.forms.rrect;rSize=5;strokeColor=none;fontColor=#ffffff;fillColor=#66bbff;fontSize=16;fontStyle=1;" parent="IQGO2oIn3tHlFsK7WPGk-4" vertex="1">
          <mxGeometry x="14" y="166" width="85" height="36" as="geometry" />
        </mxCell>
        <mxCell id="IQGO2oIn3tHlFsK7WPGk-13" value="" style="shape=singleArrow;direction=north;whiteSpace=wrap;html=1;" parent="1" vertex="1">
          <mxGeometry x="31.994999999999997" y="-693.9987817258883" width="61.7255" height="82.91878172588832" as="geometry" />
        </mxCell>
      </root>
    </mxGraphModel>
  </diagram>
  <diagram id="XWUxj2D-5FmzjMnH_Tal" name="use cases">
    <mxGraphModel dx="1879" dy="838" grid="1" gridSize="10" guides="1" tooltips="1" connect="1" arrows="1" fold="1" page="1" pageScale="1" pageWidth="827" pageHeight="1169" math="0" shadow="0">
      <root>
        <mxCell id="g9Pwd6HMv6z6yZ0VBQB1-0" />
        <mxCell id="g9Pwd6HMv6z6yZ0VBQB1-1" parent="g9Pwd6HMv6z6yZ0VBQB1-0" />
        <mxCell id="g9Pwd6HMv6z6yZ0VBQB1-22" value="" style="shape=ext;double=1;rounded=1;whiteSpace=wrap;html=1;" parent="g9Pwd6HMv6z6yZ0VBQB1-1" vertex="1">
          <mxGeometry x="340" y="37" width="160" height="90" as="geometry" />
        </mxCell>
        <mxCell id="g9Pwd6HMv6z6yZ0VBQB1-2" value="Actor" style="shape=umlActor;verticalLabelPosition=bottom;verticalAlign=top;html=1;outlineConnect=0;" parent="g9Pwd6HMv6z6yZ0VBQB1-1" vertex="1">
          <mxGeometry x="405" y="52" width="30" height="60" as="geometry" />
        </mxCell>
        <mxCell id="g9Pwd6HMv6z6yZ0VBQB1-4" value="" style="shape=datastore;whiteSpace=wrap;html=1;" parent="g9Pwd6HMv6z6yZ0VBQB1-1" vertex="1">
          <mxGeometry x="380" y="407" width="60" height="60" as="geometry" />
        </mxCell>
        <mxCell id="g9Pwd6HMv6z6yZ0VBQB1-23" value="" style="shape=singleArrow;direction=south;whiteSpace=wrap;html=1;" parent="g9Pwd6HMv6z6yZ0VBQB1-1" vertex="1">
          <mxGeometry x="384" y="127" width="60" height="100" as="geometry" />
        </mxCell>
        <mxCell id="g9Pwd6HMv6z6yZ0VBQB1-26" value="" style="endArrow=classic;html=1;rounded=0;entryX=0.5;entryY=0;entryDx=0;entryDy=0;exitX=0.5;exitY=1;exitDx=0;exitDy=0;" parent="g9Pwd6HMv6z6yZ0VBQB1-1" source="g9Pwd6HMv6z6yZ0VBQB1-36" target="g9Pwd6HMv6z6yZ0VBQB1-4" edge="1">
          <mxGeometry width="50" height="50" relative="1" as="geometry">
            <mxPoint x="405" y="357" as="sourcePoint" />
            <mxPoint x="415" y="457" as="targetPoint" />
          </mxGeometry>
        </mxCell>
        <mxCell id="g9Pwd6HMv6z6yZ0VBQB1-27" value="" style="shape=flexArrow;endArrow=classic;html=1;rounded=0;" parent="g9Pwd6HMv6z6yZ0VBQB1-1" edge="1">
          <mxGeometry width="50" height="50" relative="1" as="geometry">
            <mxPoint x="330" y="100" as="sourcePoint" />
            <mxPoint x="240" y="170" as="targetPoint" />
          </mxGeometry>
        </mxCell>
        <mxCell id="g9Pwd6HMv6z6yZ0VBQB1-28" value="" style="ellipse;whiteSpace=wrap;html=1;" parent="g9Pwd6HMv6z6yZ0VBQB1-1" vertex="1">
          <mxGeometry x="140" y="170" width="120" height="80" as="geometry" />
        </mxCell>
        <mxCell id="g9Pwd6HMv6z6yZ0VBQB1-29" value="edit" style="text;strokeColor=none;fillColor=none;html=1;fontSize=24;fontStyle=1;verticalAlign=middle;align=center;" parent="g9Pwd6HMv6z6yZ0VBQB1-1" vertex="1">
          <mxGeometry x="150" y="190" width="100" height="40" as="geometry" />
        </mxCell>
        <mxCell id="g9Pwd6HMv6z6yZ0VBQB1-30" value="" style="ellipse;whiteSpace=wrap;html=1;" parent="g9Pwd6HMv6z6yZ0VBQB1-1" vertex="1">
          <mxGeometry y="170" width="120" height="80" as="geometry" />
        </mxCell>
        <mxCell id="g9Pwd6HMv6z6yZ0VBQB1-31" value="read" style="text;strokeColor=none;fillColor=none;html=1;fontSize=24;fontStyle=1;verticalAlign=middle;align=center;" parent="g9Pwd6HMv6z6yZ0VBQB1-1" vertex="1">
          <mxGeometry x="10" y="190" width="100" height="40" as="geometry" />
        </mxCell>
        <mxCell id="g9Pwd6HMv6z6yZ0VBQB1-32" value="" style="shape=flexArrow;endArrow=classic;html=1;rounded=0;width=10;endSize=4.44;" parent="g9Pwd6HMv6z6yZ0VBQB1-1" target="g9Pwd6HMv6z6yZ0VBQB1-30" edge="1">
          <mxGeometry width="50" height="50" relative="1" as="geometry">
            <mxPoint x="320" y="80" as="sourcePoint" />
            <mxPoint x="150" y="70" as="targetPoint" />
          </mxGeometry>
        </mxCell>
        <mxCell id="g9Pwd6HMv6z6yZ0VBQB1-33" value="" style="ellipse;whiteSpace=wrap;html=1;" parent="g9Pwd6HMv6z6yZ0VBQB1-1" vertex="1">
          <mxGeometry x="580" y="160" width="120" height="80" as="geometry" />
        </mxCell>
        <mxCell id="g9Pwd6HMv6z6yZ0VBQB1-34" value="delete" style="text;strokeColor=none;fillColor=none;html=1;fontSize=24;fontStyle=1;verticalAlign=middle;align=center;" parent="g9Pwd6HMv6z6yZ0VBQB1-1" vertex="1">
          <mxGeometry x="590" y="180" width="100" height="40" as="geometry" />
        </mxCell>
        <mxCell id="g9Pwd6HMv6z6yZ0VBQB1-35" value="" style="shape=flexArrow;endArrow=classic;html=1;rounded=0;entryX=0.5;entryY=0;entryDx=0;entryDy=0;" parent="g9Pwd6HMv6z6yZ0VBQB1-1" target="g9Pwd6HMv6z6yZ0VBQB1-33" edge="1">
          <mxGeometry width="50" height="50" relative="1" as="geometry">
            <mxPoint x="510" y="110" as="sourcePoint" />
            <mxPoint x="530" y="140" as="targetPoint" />
          </mxGeometry>
        </mxCell>
        <mxCell id="g9Pwd6HMv6z6yZ0VBQB1-36" value="" style="ellipse;whiteSpace=wrap;html=1;" parent="g9Pwd6HMv6z6yZ0VBQB1-1" vertex="1">
          <mxGeometry x="350" y="240" width="120" height="80" as="geometry" />
        </mxCell>
        <mxCell id="g9Pwd6HMv6z6yZ0VBQB1-37" value="update" style="text;strokeColor=none;fillColor=none;html=1;fontSize=24;fontStyle=1;verticalAlign=middle;align=center;" parent="g9Pwd6HMv6z6yZ0VBQB1-1" vertex="1">
          <mxGeometry x="360" y="260" width="100" height="40" as="geometry" />
        </mxCell>
      </root>
    </mxGraphModel>
  </diagram>
</mxfile>
